<svg width="1440" height="190" viewBox="0 0 1440 190" fill="none" xmlns="http://www.w3.org/2000/svg">
<path fill-rule="evenodd" clip-rule="evenodd" d="M0 0L60.2917 12.0809C120.583 24.1618 241.167 47.7746 361.75 47.7746C482.333 47.7746 602.917 24.1618 723.5 19.7688C844.083 15.9249 964.667 31.8497 1085.25 55.4624C1205.83 79.0751 1326.42 110.925 1386.71 126.85L1447 142.775V190H1386.71C1326.42 190 1205.83 190 1085.25 190C964.667 190 844.083 190 723.5 190C602.917 190 482.333 190 361.75 190C241.167 190 120.583 190 60.2917 190H0V0Z" fill="black"/>
</svg>
