<svg width="105" height="43" viewBox="0 0 105 43" fill="none" xmlns="http://www.w3.org/2000/svg">
<path d="M41.0945 27.469C41.3188 27.3835 41.5337 27.3914 41.7393 27.4928C41.9562 27.5899 42.1074 27.7506 42.1929 27.9748L43.6362 31.7589C43.7517 32.0616 43.7069 32.3484 43.502 32.6192C43.1145 33.1523 42.6488 33.6318 42.1048 34.0576C41.5566 34.4722 40.9573 34.8035 40.307 35.0515C39.1858 35.4792 38.0516 35.6035 36.9046 35.4245C35.7687 35.2413 34.7563 34.7926 33.8675 34.0785C32.9743 33.3532 32.3161 32.4355 31.8927 31.3255C31.4694 30.2155 31.3514 29.0982 31.5389 27.9735C31.7222 26.8376 32.1765 25.8231 32.9018 24.93C33.6384 24.0326 34.5672 23.3701 35.6884 22.9424C36.2491 22.7286 36.8108 22.585 37.3736 22.5116C37.9476 22.4339 38.489 22.4393 38.998 22.5278C39.1624 22.5549 39.2997 22.6118 39.4097 22.6982C39.5198 22.7847 39.6005 22.8952 39.6518 23.0297C39.7373 23.254 39.7337 23.4801 39.6408 23.7082C39.5549 23.9207 39.4055 24.0676 39.1925 24.1489C39.0243 24.213 38.8636 24.2294 38.7103 24.198C37.8532 24.1396 37.0491 24.2536 36.2978 24.5401C35.4906 24.848 34.8254 25.3265 34.3024 25.9755C33.7905 26.6203 33.4688 27.3594 33.3372 28.193C33.2169 29.0224 33.3128 29.8463 33.625 30.6648C33.9372 31.4833 34.4143 32.1618 35.0564 32.7003C35.7054 33.2234 36.4376 33.5606 37.2531 33.7119C38.0755 33.8477 38.8903 33.7617 39.6976 33.4538C40.0788 33.3084 40.4598 33.1117 40.8404 32.8638C41.2322 32.6116 41.5517 32.3549 41.7989 32.0937L40.7789 29.4196L38.7439 30.1958C38.5197 30.2813 38.3013 30.2811 38.0887 30.1952C37.8719 30.0981 37.7207 29.9374 37.6352 29.7132C37.5454 29.4777 37.5511 29.2572 37.6525 29.0516C37.7496 28.8347 37.9103 28.6835 38.1345 28.598L41.0945 27.469ZM52.9639 24.984C53.2974 25.8586 53.4006 26.7182 53.2733 27.5631C53.146 28.4079 52.8152 29.157 52.281 29.8102C51.7579 30.4593 51.0871 30.9399 50.2686 31.252C49.4502 31.5642 48.6241 31.6545 47.7905 31.523C46.9681 31.3871 46.2281 31.0465 45.5705 30.501C44.913 29.9555 44.4174 29.2455 44.0838 28.371C43.7503 27.4964 43.645 26.6311 43.768 25.7751C43.891 24.919 44.2141 24.1665 44.7371 23.5175C45.2714 22.8642 45.9477 22.3815 46.7662 22.0693C47.5847 21.7571 48.4052 21.6689 49.2276 21.8048C50.0612 21.9363 50.8089 22.2805 51.4708 22.8372C52.1326 23.3938 52.6303 24.1095 52.9639 24.984ZM51.3661 25.5934C51.1352 24.9879 50.801 24.4989 50.3635 24.1264C49.9329 23.7383 49.4499 23.4988 48.9142 23.4077C48.3855 23.3011 47.8577 23.3483 47.3307 23.5493C46.8038 23.7503 46.3729 24.0687 46.0383 24.5046C45.7106 24.925 45.5098 25.4254 45.4358 26.0059C45.3687 26.5709 45.4506 27.1561 45.6816 27.7616C45.9082 28.3558 46.2347 28.8413 46.661 29.2182C47.0985 29.5907 47.5816 29.8303 48.1102 29.9369C48.6459 30.028 49.1772 29.973 49.7042 29.772C50.2311 29.571 50.6585 29.2603 50.9862 28.84C51.3208 28.4041 51.5216 27.9037 51.5887 27.3387C51.667 26.7694 51.5928 26.1876 51.3661 25.5934ZM62.9878 19.1187C63.212 19.0332 63.4269 19.0411 63.6326 19.1425C63.8494 19.2396 64.0006 19.4002 64.0861 19.6245L65.5294 23.4086C65.6449 23.7113 65.6002 23.9981 65.3952 24.2689C65.0077 24.802 64.542 25.2814 63.9981 25.7072C63.4498 26.1218 62.8505 26.4531 62.2002 26.7012C61.079 27.1288 59.9449 27.2532 58.7978 27.0742C57.6619 26.891 56.6495 26.4423 55.7607 25.7282C54.8676 25.0028 54.2093 24.0851 53.7859 22.9751C53.3626 21.8651 53.2447 20.7478 53.4322 19.6231C53.6154 18.4873 54.0697 17.4728 54.795 16.5796C55.5316 15.6822 56.4605 15.0197 57.5817 14.5921C58.1423 14.3782 58.704 14.2346 59.2668 14.1613C59.8408 14.0836 60.3823 14.089 60.8912 14.1774C61.0557 14.2046 61.1929 14.2614 61.303 14.3479C61.413 14.4343 61.4937 14.5448 61.545 14.6794C61.6305 14.9036 61.6269 15.1298 61.5341 15.3578C61.4482 15.5704 61.2987 15.7173 61.0857 15.7985C60.9175 15.8627 60.7568 15.879 60.6035 15.8476C59.7464 15.7892 58.9423 15.9033 58.1911 16.1898C57.3838 16.4977 56.7186 16.9762 56.1956 17.6252C55.6837 18.2699 55.362 19.0091 55.2305 19.8427C55.1101 20.672 55.206 21.4959 55.5182 22.3144C55.8304 23.1329 56.3075 23.8114 56.9496 24.35C57.5986 24.873 58.3309 25.2102 59.1463 25.3615C59.9687 25.4974 60.7836 25.4113 61.5908 25.1034C61.9721 24.958 62.353 24.7614 62.7336 24.5135C63.1255 24.2613 63.445 24.0045 63.6921 23.7433L62.6722 21.0692L60.6372 21.8454C60.4129 21.9309 60.1945 21.9307 59.982 21.8449C59.7651 21.7478 59.6139 21.5871 59.5284 21.3628C59.4386 21.1274 59.4444 20.9069 59.5458 20.7012C59.6429 20.4844 59.8035 20.3332 60.0278 20.2477L62.9878 19.1187ZM74.8571 16.6337C75.1906 17.5082 75.2938 18.3679 75.1665 19.2127C75.0392 20.0575 74.7084 20.8066 74.1742 21.4599C73.6511 22.1089 72.9804 22.5895 72.1619 22.9017C71.3434 23.2139 70.5173 23.3042 69.6837 23.1726C68.8613 23.0368 68.1213 22.6961 67.4638 22.1506C66.8062 21.6052 66.3106 20.8951 65.9771 20.0206C65.6435 19.1461 65.5382 18.2808 65.6612 17.4247C65.7843 16.5687 66.1073 15.8162 66.6303 15.1671C67.1646 14.5139 67.841 14.0311 68.6595 13.7189C69.4779 13.4068 70.2984 13.3186 71.1208 13.4544C71.9544 13.586 72.7021 13.9301 73.364 14.4868C74.0258 15.0435 74.5235 15.7591 74.8571 16.6337ZM73.2594 17.243C73.0284 16.6376 72.6942 16.1486 72.2567 15.776C71.8262 15.388 71.3431 15.1484 70.8075 15.0573C70.2788 14.9507 69.7509 14.9979 69.224 15.1989C68.697 15.3999 68.2662 15.7184 67.9315 16.1542C67.6038 16.5746 67.403 17.0751 67.329 17.6555C67.2619 18.2205 67.3439 18.8058 67.5748 19.4112C67.8015 20.0055 68.1279 20.491 68.5542 20.8678C68.9917 21.2404 69.4748 21.4799 70.0035 21.5865C70.5391 21.6776 71.0704 21.6227 71.5974 21.4217C72.1244 21.2207 72.5517 20.91 72.8794 20.4896C73.214 20.0537 73.4149 19.5533 73.4819 18.9883C73.5602 18.419 73.486 17.8373 73.2594 17.243ZM82.1368 8.67485C82.3722 8.58504 82.5928 8.59083 82.7984 8.69221C83.011 8.77809 83.1643 8.94437 83.2584 9.19104L86.0423 16.4901C86.1279 16.7144 86.1221 16.9349 86.025 17.1518C85.9391 17.3643 85.7784 17.5155 85.543 17.6053C85.3075 17.6951 85.0891 17.6949 84.8877 17.6048C84.6821 17.5034 84.5344 17.335 84.4446 17.0995L84.2778 16.6623C84.136 17.1659 83.8662 17.654 83.4686 18.1268C83.0667 18.5883 82.5742 18.9303 81.9912 19.1527C81.2288 19.4435 80.4588 19.5124 79.6812 19.3594C78.9149 19.2022 78.2197 18.8445 77.5958 18.2861C76.9788 17.7124 76.5035 16.9882 76.17 16.1136C75.8364 15.2391 75.7109 14.388 75.7933 13.5602C75.8827 12.717 76.1608 11.9816 76.6278 11.354C77.0948 10.7263 77.6983 10.2714 78.4383 9.98916C79.0326 9.76251 79.629 9.67629 80.2276 9.73052C80.8375 9.78047 81.3665 9.93832 81.8146 10.2041L81.6606 9.80043C81.5708 9.56498 81.5689 9.34097 81.6548 9.1284C81.7406 8.91584 81.9013 8.76465 82.1368 8.67485ZM81.6117 17.6021C82.1387 17.4011 82.5527 17.0891 82.8537 16.666C83.1659 16.2387 83.3443 15.7468 83.3889 15.1904C83.4448 14.6297 83.3594 14.0522 83.1327 13.458C82.9103 12.8749 82.5916 12.3929 82.1766 12.0118C81.7727 11.6264 81.312 11.3783 80.7945 11.2674C80.284 11.141 79.7652 11.1784 79.2383 11.3794C78.7113 11.5803 78.2917 11.8945 77.9795 12.3218C77.6785 12.7449 77.5001 13.2367 77.4442 13.7975C77.3996 14.3539 77.4906 14.9292 77.7173 15.5235C77.9439 16.1177 78.2592 16.6075 78.663 16.9929C79.0781 17.374 79.5387 17.6221 80.045 17.7373C80.5625 17.8481 81.0847 17.8031 81.6117 17.6021Z" fill="white"/>
<path d="M11.5488 26.5043C12.1781 26.7549 13.1206 26.7939 13.6366 26.7939C14.0756 26.7939 14.8203 26.7616 15.4231 26.5978C15.2462 27.6912 15.1084 28.8304 15.0441 29.9714C15.0424 29.9747 15.0389 29.9766 15.0372 29.9799C14.8373 30.0949 14.1071 30.2719 12.968 30.2719C11.8294 30.2719 11.0995 30.095 10.898 29.9799C10.8902 29.9607 10.8708 29.9501 10.8608 29.9317C11.0606 28.6766 11.2959 27.5394 11.5488 26.5043Z" fill="white"/>
<path d="M12.852 22.2758C13.4449 22.615 14.4941 22.6571 14.9027 22.6571C15.1802 22.6571 15.7633 22.6374 16.2929 22.5198C16.0535 23.4366 15.812 24.4685 15.6036 25.5709C15.5818 25.6023 15.5487 25.6255 15.5341 25.6627C15.3454 25.7727 14.6746 25.9447 13.6383 25.9447C12.6275 25.9447 11.9774 25.7842 11.7673 25.6724C12.1172 24.3544 12.4908 23.2142 12.852 22.2758Z" fill="white"/>
<path d="M12.9671 31.1201C13.5694 31.1201 14.3916 31.073 15.0068 30.8901C14.9771 32.3765 15.0845 33.8426 15.3974 35.1951C15.3917 35.2082 15.3802 35.2148 15.3744 35.2288C15.159 35.372 14.2786 35.6021 12.8484 35.6021C11.4179 35.6021 10.536 35.372 10.3216 35.2296C10.3175 35.2148 10.3038 35.2099 10.2987 35.1968C10.396 33.6186 10.5453 32.1613 10.7362 30.8235C11.4019 31.0771 12.4156 31.1201 12.9671 31.1201Z" fill="white"/>
<path d="M10.2422 36.1167C11.0184 36.4047 12.203 36.4502 12.8467 36.4502C13.5409 36.4502 14.8679 36.399 15.6298 36.0457C16.0031 37.2395 16.571 38.3113 17.3786 39.1892C17.1097 39.4616 15.9369 39.9472 13.8045 39.9472C11.4046 39.9472 10.2149 39.3306 10.1671 39.1C10.1684 38.0582 10.1979 37.0725 10.2422 36.1167Z" fill="white"/>
<path d="M19.2171 18.7622C18.5278 18.7622 17.899 18.3733 17.5838 17.7468C17.4495 17.4787 17.3819 17.2014 17.3819 16.9258C17.3819 16.402 17.6029 15.9171 18.0019 15.5596C18.3429 15.2558 18.7746 15.0895 19.2173 15.0895C20.2293 15.0895 21.0546 15.9128 21.0546 16.9257C21.0546 17.9379 20.2292 18.7622 19.2171 18.7622Z" fill="white"/>
<path d="M13.0714 15.8302C8.07365 15.8302 3.9331 20.403 2.14279 22.744C3.38751 16.5971 11.219 12.7947 11.3046 12.7542C11.4681 12.6756 11.5649 12.5018 11.5425 12.3215C11.5214 12.1419 11.3879 11.9946 11.2099 11.9574C5.41443 10.7319 1.80481 12.5688 0 13.9888C0.777161 12.3786 1.92682 11.1928 3.43417 10.4521C8.07932 8.17055 14.6781 10.7956 14.7443 10.8228C14.916 10.8916 15.1154 10.8403 15.2336 10.6947C15.352 10.549 15.3569 10.3422 15.2511 10.189C13.17 7.18341 11.1908 5.7139 9.65288 5.00562C12.9579 4.93122 15.5123 5.59567 17.0864 6.96681C18.7594 8.42072 18.7942 10.1478 18.796 10.2189C18.796 10.3903 18.8986 10.5441 19.0575 10.6097C19.2172 10.6767 19.3984 10.6393 19.5194 10.5178C21.8363 8.20081 24.1681 7.17632 26.434 7.47079C28.5226 7.74303 30.2125 9.091 31.333 10.2894C27.2383 8.62849 22.4057 11.5447 22.1658 11.6928C22.0042 11.7921 21.9281 11.9875 21.9787 12.1694C22.0324 12.3515 22.197 12.478 22.3857 12.478C27.7199 12.478 31.2649 13.6457 32.9266 15.9496C33.5828 16.8615 33.8409 17.8329 33.9129 18.6744C33.6853 18.303 33.4 17.967 33.0483 17.6716C30.353 15.3885 24.9418 16.259 24.7126 16.2972C24.496 16.3328 24.342 16.5297 24.3601 16.7497C24.3802 16.969 24.5621 17.1386 24.7823 17.1386C25.8475 17.1386 26.7295 17.5126 27.4825 18.2822C29.2003 20.0406 29.7383 23.402 29.9015 25.5064C27.8375 22.807 22.9263 18.9269 21.7339 18.0042C21.7175 17.9918 21.699 17.9885 21.6809 17.9785C21.8201 17.6551 21.8996 17.3001 21.8996 16.9268C21.8996 15.4473 20.6928 14.2433 19.215 14.2433C18.7269 14.2433 18.2485 14.3806 17.8296 14.6363C17.3282 13.9726 16.5537 13.5728 15.708 13.5728C14.378 13.5719 13.2765 14.5526 13.0714 15.8302Z" fill="white"/>
<path d="M15.712 14.4192C16.3019 14.4192 16.8474 14.7047 17.1891 15.1806C17.1617 15.2121 17.1428 15.2478 17.1163 15.2807C17.0748 15.3346 17.0368 15.3892 16.9987 15.4455C16.9358 15.5372 16.8797 15.6316 16.8316 15.7301C16.8018 15.7889 16.7711 15.8468 16.7454 15.9081C16.699 16.0166 16.6642 16.1282 16.6328 16.2425C16.6196 16.298 16.6016 16.35 16.5882 16.4055C16.5534 16.5768 16.5321 16.7505 16.5321 16.9268C16.5321 17.1106 16.5584 17.2925 16.5964 17.4721C16.6098 17.5234 16.623 17.5723 16.6379 17.6228C16.6544 17.6824 16.6628 17.7427 16.6861 17.8015C16.3913 17.991 16.0536 18.0919 15.7094 18.0919C14.6991 18.0919 13.8737 17.2678 13.8737 16.2559C13.8737 15.2427 14.6991 14.4192 15.712 14.4192Z" fill="white"/>
<path d="M15.712 18.9392C16.1993 18.9392 16.6769 18.8019 17.0953 18.547C17.1858 18.6677 17.2883 18.7795 17.3958 18.882C17.2534 19.281 16.9292 20.2292 16.5609 21.53C16.5593 21.5349 16.5534 21.5376 16.5516 21.5425C16.3853 21.6474 15.8003 21.8098 14.9026 21.8098C14.0042 21.8098 13.4196 21.6467 13.2524 21.5425C13.2407 21.5053 13.2078 21.4829 13.1874 21.4506C13.8547 19.8742 14.4175 18.9747 14.6065 18.6942C14.9442 18.8475 15.3154 18.9392 15.712 18.9392Z" fill="white"/>
<path d="M89 37.5C101.4 34.3 110.167 14.6667 97 4C101.457 12.7489 69.5 32.5 8.66991 39.6879C23.7799 39.7919 76.6 40.7 89 37.5Z" fill="white"/>
<path d="M7.5 40C7.8936 39.8968 8.28356 39.7928 8.66991 39.6879M8.66991 39.6879C69.5 32.5 101.457 12.7489 97 4C110.167 14.6667 101.4 34.3 89 37.5C76.6 40.7 23.7799 39.7919 8.66991 39.6879Z" stroke="white"/>
<circle cx="95.5" cy="2.5" r="1.5" fill="white"/>
</svg>
